<?xml version="1.0" standalone="no"?>
<!DOCTYPE svg PUBLIC "-//W3C//DTD SVG 20010904//EN"
 "http://www.w3.org/TR/2001/REC-SVG-20010904/DTD/svg10.dtd">
<svg version="1.0" xmlns="http://www.w3.org/2000/svg"
 width="1280.000000pt" height="1280.000000pt" viewBox="0 0 1280.000000 1280.000000"
 preserveAspectRatio="xMidYMid meet">
<metadata>
Created by potrace 1.11, written by Peter Selinger 2001-2013
</metadata>
<g transform="translate(0.000000,1280.000000) scale(0.100000,-0.100000)"
fill="#000000" stroke="none">
<path d="M6145 12794 c-382 -23 -574 -44 -861 -94 -1166 -203 -2256 -733
-3149 -1530 -265 -237 -599 -596 -817 -881 -972 -1270 -1430 -2845 -1292
-4449 117 -1370 680 -2671 1604 -3705 140 -157 472 -482 626 -611 938 -792
2032 -1285 3234 -1458 722 -104 1485 -81 2200 65 432 89 933 251 1338 433 532
239 1071 583 1538 980 268 228 657 635 882 925 925 1188 1403 2672 1342 4170
-20 485 -75 872 -190 1327 -237 946 -668 1789 -1306 2555 -237 285 -655 687
-963 927 -976 761 -2141 1218 -3381 1327 -167 15 -679 27 -805 19z m815 -658
c1186 -122 2261 -578 3170 -1344 166 -140 539 -515 674 -677 674 -810 1108
-1741 1276 -2734 66 -390 84 -647 77 -1083 -8 -527 -65 -938 -196 -1414 -226
-822 -609 -1546 -1169 -2214 -138 -164 -513 -537 -677 -674 -1068 -890 -2347
-1356 -3720 -1356 -1363 0 -2666 479 -3725 1370 -173 146 -525 498 -664 665
-532 639 -907 1332 -1130 2087 -516 1750 -177 3635 915 5093 170 226 319 396
543 620 461 461 939 804 1516 1089 685 339 1375 526 2160 586 175 13 769 4
950 -14z"/>
</g>
</svg>
